/* XPM */
static char *aa0bab32f08447d19ce3fdff7f204f33Bzeg4Nav8voel4nt[] = {
/* columns rows colors chars-per-pixel */
"64 64 93 2 ",
"   c #40201B",
".  c #412320",
"X  c #504959",
"o  c #434F65",
"O  c #47536A",
"+  c #4F5A6F",
"@  c #4E5B73",
"#  c #515E77",
"$  c #515E78",
"%  c #5B677E",
"&  c #616B7F",
"*  c #946013",
"=  c #93601B",
"-  c #8F6F5F",
";  c #947058",
":  c #987868",
">  c #9C7D6E",
",  c #8B7471",
"<  c #8C7570",
"1  c #917B77",
"2  c #E09600",
"3  c #E0960C",
"4  c #FDAB00",
"5  c #E09A33",
"6  c #E19C3E",
"7  c #F7AA2F",
"8  c #F8A929",
"9  c #A28576",
"0  c #A1857F",
"q  c #CA935F",
"w  c #E19D42",
"e  c #E39F47",
"r  c #E39F4C",
"t  c #E4A047",
"y  c #EAA449",
"u  c #E5A353",
"i  c #E3A154",
"p  c #E4A355",
"a  c #ECA751",
"s  c #E5A45B",
"d  c #E6A65E",
"f  c #E8A85F",
"g  c #CD9867",
"h  c #D09A66",
"j  c #C19578",
"k  c #E9A964",
"l  c #5F6B80",
"z  c #5D6C88",
"x  c #636E83",
"c  c #656F8B",
"v  c #657084",
"b  c #6A7487",
"n  c #65708B",
"m  c #647391",
"M  c #657492",
"N  c #6F7F9F",
"B  c #787B91",
"V  c #74819B",
"C  c #74819C",
"Z  c #79869F",
"A  c #6F80A0",
"S  c #7080A0",
"D  c #7A87A0",
"F  c #97878D",
"G  c #868495",
"H  c #8B8D9E",
"J  c #A48B8B",
"K  c #A38C8B",
"L  c #A48C8B",
"P  c #AA918A",
"I  c #AA918C",
"U  c #AD9794",
"Y  c #A4969A",
"T  c #AF9B9A",
"R  c #B19B98",
"E  c #B19C9A",
"W  c #B7A19B",
"Q  c #858EA2",
"!  c #828DA4",
"~  c #818FAA",
"^  c #8994AA",
"/  c #8895AF",
"(  c #8D98AC",
")  c #8996B0",
"_  c #949EB1",
"`  c #929EB6",
"'  c #9AA5BB",
"]  c #9BA6BC",
"[  c #9FA9BF",
"{  c #B0A1A3",
"}  c #BAA7A3",
"|  c #A0AABF",
" . c #C99F85",
/* pixels */
"4 4 4 4 4 4 4 4 4 4 4 4 4 4 4 4 4 4 4 4 4 4 4 4 4 4 4 4 4 4 4 4 4 4 4 4 4 4 4 4 4 4 4 4 4 4 4 4 4 4 4 4 4 4 4 4 4 4 4 4 4 4 4 4 ",
"4 4 4 4 4 4 4 4 4 4 4 4 4 4 4 4 4 4 4 4 4 4 4 4 4 4 4 4 4 4 4 4 4 4 4 4 4 4 4 4 4 4 4 4 4 4 4 4 4 4 4 4 4 4 4 4 4 4 4 4 4 4 4 4 ",
"4 4 4 4 4 4 4 4 4 4 4 4 4 4 4 4 4 4 4 4 4 4 4 4 4 4 4 4 4 4 4 4 4 4 4 4 4 4 4 4 4 4 4 4 4 4 4 4 4 4 4 4 4 4 4 4 4 4 4 4 4 4 4 4 ",
"4 4 4 4 4 4 4 4 4 4 4 4 4 4 4 4 4 4 4 4 4 4 4 4 4 4 4 4 4 4 4 4 4 4 4 4 4 4 4 4 4 4 4 4 4 4 4 4 4 4 4 4 4 4 4 4 4 4 4 4 4 4 4 4 ",
"4 4 4 4 4 4 4 4 4 4 4 4 4 4 4 4 4 4 4 4 4 4 4 4 4 4 4 4 4 4 4 4 4 4 4 4 4 4 4 4 4 4 4 4 4 4 4 4 4 4 4 4 4 4 4 4 4 4 4 4 4 4 4 4 ",
"4 4 4 4 4 4 4 4 4 4 4 4 4 4 4 4 4 4 4 4 4 4 4 4 4 4 4 4 4 4 4 4 4 4 4 4 4 4 4 4 4 4 4 4 4 4 4 4 4 4 4 4 4 4 4 4 4 4 4 4 4 4 4 4 ",
"4 4 4 4 4 4 4 4 4 4 4 4 4 4 4 4 4 4 4 4 4 4 4 4 4 4 4 4 4 4 4 4 4 4 4 4 4 4 4 4 4 4 4 4 4 4 4 4 4 4 4 4 4 4 4 4 4 4 4 4 4 4 4 4 ",
"4 4 4 4 4 4 4 4 4 4 4 4 4 4 4 4 4 4 4 4 4 4 4 4 4 7 a d d d d d d d d d d a 7 4 4 4 4 4 4 4 4 4 4 4 4 4 4 4 4 4 4 4 4 4 4 4 4 4 ",
"4 4 4 4 4 4 4 4 4 4 4 4 4 4 4 4 4 4 4 4 4 4 4 4 4 a  .R T R R R R R R T R  .a 4 4 4 4 4 4 4 4 4 4 4 4 4 4 4 4 4 4 4 4 4 4 4 4 4 ",
"4 4 4 4 4 4 4 4 4 4 4 4 4 4 4 4 4 4 4 4 4 4 4 4 4 d R / / / / / / / / / / R d 4 4 4 4 4 4 4 4 4 4 4 4 4 4 4 4 4 4 4 4 4 4 4 4 4 ",
"4 4 4 4 4 4 4 4 4 4 4 4 4 4 4 4 4 4 4 4 4 4 4 4 4 d T / / / / / / / / / / T d 4 4 4 4 4 4 4 4 4 4 4 4 4 4 4 4 4 4 4 4 4 4 4 4 4 ",
"4 4 4 4 4 4 4 4 4 4 4 4 4 7 a d d d d d d d d u w g Y / / / / / / / / / / Y g w u d d d d d d d d a 7 4 4 4 4 4 4 4 4 4 4 4 4 4 ",
"4 4 4 4 4 4 4 4 4 4 4 4 4 a  .R T R R R R E R P > 1 H / / / / / / / / / / H 1 > P R E R R R R T R  .a 4 4 4 4 4 4 4 4 4 4 4 4 4 ",
"4 4 4 4 4 4 4 4 4 4 4 4 4 d R / / / / / / ) / Z % l ! ` ` ` ` ` ` ` ` ` ` ! l % Z / ) / / / / / / R d 4 4 4 4 4 4 4 4 4 4 4 4 4 ",
"4 4 4 4 4 4 4 4 4 4 4 4 4 d T / / / / / / ) / Z % v ( [ | [ [ [ [ [ [ | [ ( v % Z / ) / / / / / / T d 4 4 4 4 4 4 4 4 4 4 4 4 4 ",
"5 w p d d d d d d d d u w g Y / / / / / / / / Z % x ^ ' ] ' ' ' ' ' ' ] ' ^ x % Z / / / / / / / / Y g w u d d d d d d d d p w 5 ",
"; > I R E R R R R E R P > 1 H / / / / / / ) / Z % % V ~ ~ ~ ~ ~ ~ ~ ~ ~ ~ V % % Z / ) / / / / / / H 1 > P R E R R R R E R I > ; ",
"o % D / ) / / / / ) / Z % l ! ` ` ` ` ` ` ` ` ! l $ M N N N N N N N N N N M $ l ! ` ` ` ` ` ` ` ` ! l % Z / ) / / / / ) / D % o ",
"o % D / ) / / / / ) / Z % v ( [ | [ [ [ [ | [ ( v # m N N N N N N N N N N m # v ( [ | [ [ [ [ | [ ( v % Z / ) / / / / ) / D % o ",
"o % D / / / / / / / / Z % x ^ ' ] ' ' ' ' ] ' ^ x $ M N N N N N N N N N N M $ x ^ ' ] ' ' ' ' ] ' ^ x % Z / / / / / / / / D % o ",
"o % D / ) / / / / ) / Z % % V ~ ~ ~ ~ ~ ~ ~ ~ V % $ M N N N N N N N N N N M $ % V ~ ~ ~ ~ ~ ~ ~ ~ V % % Z / ) / / / / ) / D % o ",
"o l ! ` ` ` ` ` ` ` ` ! l $ M N N N N N N N N M # $ M N N N N N N N N N N M $ # M N N N N N N N N M $ l ! ` ` ` ` ` ` ` ` ! l o ",
"o v ( [ | [ [ [ [ | [ ( v # m N N N N N N N N M # $ M N N N N N N N N N N M $ # M N N N N N N N N m # v ( [ | [ [ [ [ | [ ( v o ",
"o x ^ ' ] ' ' ' ' ] ' ^ x $ M N N N N N N N N B , : 0 L L L L L L L L L L 0 : , B N N N N N N N N M $ x ^ ' ] ' ' ' ' ] ' ^ x o ",
"o % C ~ ~ ~ ~ ~ ~ ~ ~ V % $ M N N N N N N N N F q 6 r i i i i i i i i i i r 6 q F N N N N N N N N M $ % V ~ ~ ~ ~ ~ ~ ~ ~ C % o ",
"o $ M N N N N N N N N B < : 0 L L L L L L K L j y 4 4 4 4 4 4 4 4 4 4 4 4 4 4 y j L K L L L L L L 0 : < B N N N N N N N N M $ o ",
"o # M N N N N N N N N F q 6 r i i i i i i i i y 8 4 4 4 4 4 4 4 4 4 4 4 4 4 4 8 y i i i i i i i i r 6 q F N N N N N N N N M # o ",
"o $ M N S N N N N N N L i 4 4 4 4 4 4 4 4 4 4 4 4 4 4 4 4 4 4 4 4 4 4 4 4 4 4 4 4 4 4 4 4 4 4 4 4 4 4 i L N N N N N N S N M $ o ",
"o $ M N N N N N N N N L p 4 4 4 4 4 4 4 4 4 4 4 4 4 4 4 4 4 4 4 4 4 4 4 4 4 4 4 4 4 4 4 4 4 4 4 4 4 4 p L N N N N N N N N M $ o ",
"o @ z M M M M M M M M 0 r 4 4 4 4 4 4 4 4 4 4 4 4 4 4 4 4 4 4 4 4 4 4 4 4 4 4 4 4 4 4 4 4 4 4 4 4 4 4 r 0 M M M M M M M M z @ o ",
"o O @ $ $ $ $ $ $ $ $ : 6 4 4 4 4 4 4 4 4 4 4 4 4 4 4 4 4 4 4 4 4 4 4 4 4 4 4 4 4 4 4 4 4 4 4 4 4 4 4 6 : $ $ $ $ $ $ $ $ @ O o ",
"o + & b b b b b b b b 9 e 4 4 4 4 4 4 4 4 4 4 4 4 4 4 4 4 4 4 4 4 4 4 4 4 4 4 4 4 4 4 4 4 4 4 4 4 4 4 e 9 b b b b b b b b & + o ",
"o & Q _ _ _ _ _ _ _ _ W f 4 4 4 4 4 4 4 4 4 4 4 4 4 4 4 4 4 4 4 4 4 4 4 4 4 4 4 4 4 4 4 4 4 4 4 4 4 4 f W _ _ _ _ _ _ _ _ Q & o ",
"o x ^ ' ] ' ' ' ' ' ' } k 4 4 4 4 4 4 4 4 4 4 4 4 4 4 4 4 4 4 4 4 4 4 4 4 4 4 4 4 4 4 4 4 4 4 4 4 4 4 k } ' ' ' ' ' ' ] ' ^ x o ",
"o % C ~ ~ ~ ~ ~ ~ ~ ~ U s 4 4 4 4 4 4 4 4 4 4 4 4 4 4 4 4 4 4 4 4 4 4 4 4 4 4 4 4 4 4 4 4 4 4 4 4 4 4 s U ~ ~ ~ ~ ~ ~ ~ ~ C % o ",
"o $ M N N N N N N N N L i 4 4 4 4 4 4 4 4 4 4 4 4 4 4 4 4 4 4 4 4 4 4 4 4 4 4 4 4 4 4 4 4 4 4 4 4 4 4 i L N N N N N N N N M $ o ",
"o # M N N N N N N N N J i 4 4 4 4 4 4 4 4 4 4 4 4 4 4 4 4 4 4 4 4 4 4 4 4 4 4 4 4 4 4 4 4 4 4 4 4 4 4 i J N N N N N N N N M # o ",
"o $ M N N N N N N N N L i 4 4 4 4 4 4 4 4 4 4 4 4 4 4 4 4 4 4 4 4 4 4 4 4 4 4 4 4 4 4 4 4 4 4 4 4 4 4 i L N N N N N N N N M $ o ",
"o $ M N N N N N N N N L i 4 4 4 4 4 4 4 4 4 4 4 4 4 4 4 4 4 4 4 4 4 4 4 4 4 4 4 4 4 4 4 4 4 4 4 4 4 4 i L N N N N N N N N M $ o ",
"o $ M N S N N N N N N L i 4 4 4 4 4 4 4 4 4 4 4 4 4 4 4 4 4 4 4 4 4 4 4 4 4 4 4 4 4 4 4 4 4 4 4 4 4 4 i L N N N N N N S N M $ o ",
"o $ M N N N N N N N N L i 4 4 4 4 4 4 4 4 4 4 4 4 4 4 4 4 4 4 4 4 4 4 4 4 4 4 4 4 4 4 4 4 4 4 4 4 4 4 i L N N N N N N N N M $ o ",
"o @ z M M M M M M M M 0 r 4 4 4 4 4 4 4 4 4 4 4 4 4 4 4 4 4 4 4 4 4 4 4 4 4 4 4 4 4 4 4 4 4 4 4 4 4 4 r 0 M M M M M M M M z @ o ",
"o O @ $ $ $ $ $ $ $ $ : 6 4 4 4 4 4 4 4 4 4 4 4 4 4 4 4 4 4 4 4 4 4 4 4 4 4 4 4 4 4 4 4 4 4 4 4 4 4 4 6 : $ $ $ $ $ $ $ $ @ O o ",
"o + & b b b b b b b b 9 e 4 4 4 4 4 4 4 4 4 4 4 4 4 4 4 4 4 4 4 4 4 4 4 4 4 4 4 4 4 4 4 4 4 4 4 4 4 4 e 9 b b b b b b b b & + o ",
"o & Q _ _ _ _ _ _ _ _ W f 4 4 4 4 4 4 4 4 4 4 4 4 4 4 4 4 4 4 4 4 4 4 4 4 4 4 4 4 4 4 4 4 4 4 4 4 4 4 f W _ _ _ _ _ _ _ _ Q & o ",
"o x ^ ' ] ' ' ' ' ' ' } k 4 4 4 4 4 4 4 4 4 4 4 4 4 4 4 4 4 4 4 4 4 4 4 4 4 4 4 4 4 4 4 4 4 4 4 4 4 4 k } ' ' ' ' ' ' ] ' ^ x o ",
"o % C ~ ~ ~ ~ ~ ~ ~ ~ U s 4 4 4 4 4 4 4 4 4 4 4 4 4 4 4 4 4 4 4 4 4 4 4 4 4 4 4 4 4 4 4 4 4 4 4 4 4 4 s U ~ ~ ~ ~ ~ ~ ~ ~ C % o ",
"o $ M N N N N N N N N L i 4 4 4 4 4 4 4 4 4 4 4 4 4 4 4 4 4 4 4 4 4 4 4 4 4 4 4 4 4 4 4 4 4 4 4 4 4 4 i L N N N N N N N N M $ o ",
"o # M N N N N N N N N J i 4 4 4 4 4 4 4 4 4 4 4 4 4 4 4 4 4 4 4 4 4 4 4 4 4 4 4 4 4 4 4 4 4 4 4 4 4 4 i J N N N N N N N N M # o ",
"o $ M N N N N N N N N L i 4 4 4 4 4 4 4 4 4 4 4 4 4 4 4 4 4 4 4 4 4 4 4 4 4 4 4 4 4 4 4 4 4 4 4 4 4 4 i L N N N N N N N N M $ o ",
"o $ M N N N N N N N N L i 4 4 4 4 4 4 4 4 4 4 4 4 4 4 4 4 4 4 4 4 4 4 4 4 4 4 4 4 4 4 4 4 4 4 4 4 4 4 i L N N N N N N N N M $ o ",
"o $ M N S N N N N N N L i 4 4 4 4 4 4 4 4 4 4 4 4 4 4 4 4 4 4 4 4 4 4 4 4 4 4 4 4 4 4 4 4 4 4 4 4 4 4 i L N N N N N N S N M $ o ",
"o $ M N N N N N N N N L i 4 4 4 4 4 4 4 4 4 4 4 4 4 4 4 4 4 4 4 4 4 4 4 4 4 4 4 4 4 4 4 4 4 4 4 4 4 4 i L N N N N N N N N M $ o ",
"o @ z M M M M M M M M 0 r 4 4 4 4 4 4 4 4 4 4 4 4 4 4 4 4 4 4 4 4 4 4 4 4 4 4 4 4 4 4 4 4 4 4 4 4 4 4 r 0 M M M M M M M M z @ o ",
"o O @ $ $ $ $ $ $ $ $ : 6 4 4 4 4 4 4 4 4 4 4 4 4 4 4 4 4 4 4 4 4 4 4 4 4 4 4 4 4 4 4 4 4 4 4 4 4 4 4 6 : $ $ $ $ $ $ $ $ @ O o ",
"o + & b b b b b b b b 9 t 4 4 4 4 4 4 4 4 4 4 4 4 4 4 4 4 4 4 4 4 4 4 4 4 4 4 4 4 4 4 4 4 4 4 4 4 4 4 t 9 b b b b b b b b & + o ",
"o & Q _ _ _ _ _ _ _ _ W f 4 4 4 4 4 4 4 4 4 4 4 4 4 4 4 4 4 4 4 4 4 4 4 4 4 4 4 4 4 4 4 4 4 4 4 4 4 4 f W _ _ _ _ _ _ _ _ Q & o ",
"o x ^ ' ] ' ' ' ' ' ' { h 3 2 3 3 3 3 3 3 3 3 3 3 3 3 3 3 3 3 3 3 3 3 3 3 3 3 3 3 3 3 3 3 3 3 3 3 2 3 h { ' ' ' ' ' ' ] ' ^ x o ",
"o % C ~ ~ ~ ~ ~ ~ ~ ~ G - = * = = = = = = = = = = = = = = = = = = = = = = = = = = = = = = = = = = * = - G ~ ~ ~ ~ ~ ~ ~ ~ C % o ",
"o $ M N N N N N N A N n X .   . . . . . . . . . . . . . . . . . . . . . . . . . . . . . . . . . .   . X n N A N N N N N N M $ o ",
"o # M N N N N N N N N c X .   . . . . . . . . . . . . . . . . . . . . . . . . . . . . . . . . . .   . X c N N N N N N N N M # o ",
"o $ M N N N N N N A N n X .   . . . . . . . . . . . . . . . . . . . . . . . . . . . . . . . . . .   . X n N A N N N N N N M $ o ",
"o $ M N N N N N N A N n X .   . . . . . . . . . . . . . . . . . . . . . . . . . . . . . . . . . .   . X n N A N N N N N N M $ o ",
"o $ M N N N N N N A N n X .   . . . . . . . . . . . . . . . . . . . . . . . . . . . . . . . . . .   . X n N A N N N N N N M $ o "
};
