/* XPM */
static char *_2e43b6fbbdd4d6cc7c0698d57aa7ebetGEqwUwT3EUjhsvf[] = {
/* columns rows colors chars-per-pixel */
"64 64 105 2 ",
"   c #372D24",
".  c #382E25",
"X  c #3A3027",
"o  c #3D332A",
"O  c #41372D",
"+  c #42382F",
"@  c #453C33",
"#  c #483E35",
"$  c #4B4137",
"%  c #4D433A",
"&  c #51463D",
"*  c #54493F",
"=  c #554B41",
"-  c #594E44",
";  c #5C5146",
":  c #5D5349",
">  c #615547",
",  c #61564B",
"<  c #64594D",
"1  c #695C4E",
"2  c #665B51",
"3  c #695E53",
"4  c #6C6155",
"5  c #6E6359",
"6  c #726456",
"7  c #72665B",
"8  c #74695D",
"9  c #7A6C5E",
"0  c #776B61",
"q  c #7A6E62",
"w  c #7D7164",
"e  c #7F7268",
"r  c #827465",
"t  c #877866",
"y  c #887967",
"u  c #837669",
"i  c #86796C",
"p  c #8A7C6D",
"a  c #8C7E71",
"s  c #8F806E",
"d  c #90806E",
"f  c #8F8073",
"g  c #938475",
"h  c #988775",
"j  c #978877",
"k  c #9A8976",
"l  c #958679",
"z  c #97897C",
"x  c #9A8A7A",
"c  c #A08F7E",
"v  c #A2917E",
"b  c #9C8D81",
"n  c #9F9084",
"m  c #A49483",
"M  c #A89783",
"N  c #AC9A85",
"B  c #A59689",
"V  c #A7988B",
"C  c #AC9B8C",
"Z  c #B19E89",
"A  c #AE9E92",
"S  c #B09F91",
"D  c #B4A28C",
"F  c #B9A68E",
"G  c #BBA88F",
"H  c #B4A393",
"J  c #B9A793",
"K  c #BEAA92",
"L  c #B6A698",
"P  c #B8A79A",
"I  c #BDAB98",
"U  c #BDAB9B",
"Y  c #BFAC9B",
"T  c #BBAA9C",
"R  c #BBAA9D",
"E  c #BFAD9E",
"W  c #C1AE96",
"Q  c #C1AE9B",
"!  c #C1AF9E",
"~  c #C4B099",
"^  c #C5B19C",
"/  c #C7B39E",
"(  c #C7B49F",
")  c #C8B49F",
"_  c #C0AFA1",
"`  c #C2B0A0",
"'  c #C7B4A2",
"]  c #C5B3A4",
"[  c #C9B5A1",
"{  c #CBB7A4",
"}  c #CBB8A4",
"|  c #CDBAA7",
" . c #C9B7A8",
".. c #CEBBA8",
"X. c #CCB9AA",
"o. c #CEBBAA",
"O. c #CFBCAA",
"+. c #D0BCAB",
"@. c #D1BEAE",
"#. c #D2BFB0",
"$. c #D3C0AF",
"%. c #D4C1B1",
"&. c #D5C2B3",
"*. c #D7C4B5",
"=. c #D8C5B6",
/* pixels */
"u l a 3   - / U . = -     $ a a g 7 %     . , .   C m +         # a 0 7 7 5 2 .         & ; - X X . a g g         % j g $ $ 7 7 ",
"~ / [ | U 7 6 9 z *.$._ 2 @./ U U [ | C : H D D ; p M 4 J Y M   j [ [ [ | @.@.=.` u , ! [ [ [ | +.' u = b _ ! U ` H A A f C / ~ ",
"F G K K K ( E # H | W Q H v N j a j M D D < 3 - 0 l 3 3 D N g   8 N Z Z N D K ~ [ #.V < x M C N Z U l l } ~ K K W / o.%.*.B v D ",
"g j x M N Z K g T K M N D & + % # @ ; a j *   m *.O.o.w = : o   i l g g j j j N G K | A 4 p p a g 8 . l K K D N N N Z F K W % q ",
"= q p g j j x 6 J v j j g 1 a =._ A : ; 9 P z ` ~ K G Q M       : 7 8 8 q q p l j v G { 3 ; 3 2 2 7 7 % r j j j j j j j x x -   ",
"3 = 3 8 3 - O 4 x 4 q < < % H W Z N r   X D w M m l g a f X           X % 5 8 9 u j x v = w z T %.%.o.' 4 * 4 w u u u i p i @ # ",
" .P a # X - f o.*.*.o.A   z U x l i 3 4 5 9 - - 7 9 7 8 3 < P & @ z l ,   @ 2 8 8 u p $ b =.%.[ ~ W K K k     + $ : < ; $ @ l o.",
"K K / ` q A | ~ K K K [ i Q x i 8 2  .+.*.T .             1 Z - g K K } V q # q # 4 7 - x K D N v c c v 9 = q 7 .     .     h K ",
"M M D G G > D Z N m M Z h f w 8 ; E Q K K ~ g   5 P A m l 2 p   p m D K ~ @.%.=.%.=.%.` r j j l g g g g 2 o.=.=.P   - #. .9 1 g ",
"9 f g j i o u g j g p 4 ; H ' J j s j j j j v , H J Z Z J ! %   q l j x M Z Z J F G D Z r 3 < 4 3 5 : 3 J ) K K J 1 B / K G 4 o ",
"o 3 7 - @   ; 0 w w ,   @ x j j j & - 4 9 u i % , g g j j h .   o < q w w a g j j j j j w 4 z _ ` 0   H K K D c j 7 m K G N r   ",
". m A a .     & # @           ; $ z P 7   + @     @ ; 4 7 ; 1 ' J   X = = = 3 w u u t i 3 O.| | o.o.X H G v l f t - M m j j p   ",
"H [ W K f     B / t   3 H O.q   5 Q D h 3 O.{ 1   . 3 7 $   . 6 9 @ %         = 2 < : o b W K K K K r p x i w 9 < % l j g u 4 # ",
"K N x q # g 1 g g q . @.=.=.%.A f 2 4 = 7 M 9 u H  .o.[ ! j C   9 #.=.O.L 4 .     r m 4 G D M c j j g = w w q X     & , , = 7 / ",
"x g q ,   7 % = # o 2 =.o.( [ O.%. .3   7 b 3 V Q D Z M v N N + o.o.| @.%.@.A _ ` 2     g j j j j j g 2 3 9 u i 2 .         m G ",
"q : O ! g       7 x i %.K K K K K Q D q =.=._ * i p a f u 4 7 o [ K K K K W ~ [ o.o.3   % 4 w w q 8 8 %   0 =.%.*.o.` ] #.n r i ",
", =   v i   g o.z   . | G v x j c j m V *.[ +.u X @ = 2 <       M K K K G K K K K K J % # 5 ; 4 4 1 &     o.W K W W [ o.o./ * . ",
"=.=.H + O   M N g   * / c j j j j j i B [ K K U 9   ; l l 5 .   6 x j j j j j c v N Z d a J :   a m m 9   D Z Z Z Z C N N Z 4 V ",
"o.[ | M . . ; , @   4 Z j j j j j a 8 : / G N v x - V =.*.o.; e % p j j j j j j j j l = $ q i T %.| [ J & 1 g j j j j j g u # O.",
"K G Z D y   & _ H   + g l g g a r 8 :   k j j j j b *./ K K g ~ M o ; 9 u u t p p p 3   u %.%.[ K K K D r   = 9 w u u w 4 5   U ",
"N j j j a   B =.=.B . 4 8 8 8 8 7 :     1 j j j g q ! K K K s 3 4       ; 8 8 8 8 2   @  .} W K D M x j a       2 & * @ l o.q N ",
"g j g i 8   H } | *.a @ , 3 , a l i 0   @ w q 9 8 = k K D D d   1 [ / ,   * ; , ; # ; 7 +.K C c j j f u 9 X   * C J 3   M N q 1 ",
"7 w q 8 ;   M K K ~ H &     3 / W ! Y E a < 8 8 7 : D x j j q   * M x - U ' * i u b H q K M j j g u 9 8 8 @ , i b b w 3 % q 1 X ",
"# = = @     y D G G K / q   o , , 4 q f 6 # 5 < % : j j j j q b a $ , X 1 q @ < = r c 3 g l p w 8 < ; - + - o.@.o.| o.@.@.z     ",
"      . B m u j j j x M M   . i V A 9     < j m & 4 g j j j 9 x Z ,   3 B ] L H u   = X # - , ; # $ 3 .   6 W K K K K K W W :   ",
"7 l l . t 9 4 j j j j j g . m / ~ ~ [ ! H A z     3 9 w u u 4 X * i { [ Q W K W ~ ;         5 a ; Y J j   t j x j x c M M M 6   ",
"#.=.=.H .   = w i a g u 4   g N v M Z G W ) o.q   = 8 8 8 8 4     C K K F G G K K i     7 A O.=. .a w 4   # 7 q w w r w w 9 @ 7 ",
"/ K W @.B   @ 8 8 8 8 1 b p 9 j j j j j j m N Z *   2 8 8 8 5     g j j j j j j j 1   a *.+.Q / [ O.H 7 &     % = * + .       H ",
"G D G K ' i . & , - %   p x ; f g g l j j j j g 4   & 8 8 8 w o.p 4 9 q u w q 8 7 # ; %.[ K K K K K ~ | ! +   & a V u 2 - .   9 ",
"q l j x N / D a #     u l 0 @ O ; 5 8 9 0 q 7 ; 9 ! M + = @ . g i   @ # q 9 3 # + D a / K K D N N M v x i o 4 [ [ / ( [ | +.D O ",
"o 8 g j j x N U N @ 7 %.=.#.A #   O = 9 : * @   & r w       4 a ;   l J / | D + 1 M 7 D G M j l f i t 5 +   g K K G G K G G F @ ",
"# f - w a g g g i + 3 %.[ / | ' 5   m { / : 2 m A C a 7 2 & w x m   w j g p g * 7 u # $ - 4 2 3 2 ; $       r m j j j j j j g $ ",
"7 U g O : 4 5 4 *   . ~ K K G K W Y r j f %  .%.@.o.$.=.=.o.,   X & z V V m 7   $ =   @ a m l a r     # B H 4 w u r t u u 9 :   ",
"$ 2 : 1 g x = u / / 1 M x j j j j j g O o z ) K K K G G G W t : & H / ~ ~ [ | P l ; - 1 M N g q -   - & c M r       @ # # X   # ",
" .a   X # 2 u - 1 4 & q w u i w w u q     h D m c v v j j v r s 9 M Z N v N D K ~ / U ; @ = , = a H ] ` 5 ; =     w g a w   4 o.",
"=.=.q   = o.=.%.a   @ ; , , , 2 < & l l ; : g g l g g g g a 9 # = q r p f g l j x N K p   z %.@.o.[ / | $.S     i =.=.=.O.  a =.",
"[ [ @.3 : J K [ #.z #   1 g x =     v D g   = < 5 5 8 8 8 7 *   X   O - 2 8 8 w i p x 1 - | W K K K G G G G 6   l *.@.W Z   7 %.",
"K K K / 9 O x Z G [ / m $ - %   3 @ o = %           * g p ;       D U q     $ ; , = o     D D N x g a p a g q = ` W G Z i     C ",
"Z D G K N   9 j j N G ( B   : ` { ! E ] b =         @ 4 u # m [ 3 : t w             ; E - , t q 8 7 7 8 8 4 = z | K N l 1   : G ",
"j j j c h   + u g j j D Z   V ~ K K K / | @.o.] L .   f =.T 3 p , H =.` A l l l 5   i G g             @ @ b b B K x g 9 . 3 , j ",
"g a g g 9     * 8 9 i g g   N K G F F G G G G U ( y   ` %.[ 6   3 %.[ / [ [ [ [ / p = 3 :     , l E n = * M M r Z g q 4 n @.7 j ",
"8 8 8 5 O o.x   @ ; , 2 *   = 7 q i i p p f p p p 4 = o.K K h , 4 U D N M m c x g g % V ] ' o.@.@.@.{ W g + @ : g 8 8 = Z D r < ",
"< 8 5 #   p g       @ T J ,     X % = ; , 2 2 * o   q K N M r W 3 g g a t t i w 7 = , o.~ W K G D Z N c j 2   # 8 8 2 o w u , o ",
"  X       # ; &     3 H N r   X           : / U T % r x j g * r o f a 2 : = $ # X . : K M x g g g p p p w %     % @   X = +     ",
"      # b %.=.%.L ] g o : % B =. .o.B =   + p j x   w p u =     l [ / g       ; l 2   t u 9 2 : = $ % & % # V 5   q l l l e #   ",
"  2 L o.} ~ U H Z J D 9 . #.+.~ Q Q [ } H u 3       : 5 * - V j , u 7 u g @   x U Q :       9 U J H 4     M H 9 V | / ~ ~ [ / * ",
"  U / G M m j p t p a ,   ' K K D Z D K W / Y E q   o O   > x x   # z %.=. .q o w p =       7 v i w = .   < i # D D Z v v v M # ",
"  9 j i w 8 < % # % = o   F D x j j j j j x v M 1     & 2 u   . 9 o.| ~ Q / %.g X %     w ` ] H H ` #.%./ : X . % 4 9 9 q q 7   ",
"    - ; 2 9 =   - l u #   g g a i w q 8 u w t u o   u O.=.=.B   _ / K K K K K [ H 6   @  .+.o.[ [ W K K K 3 X g g 1     + X     ",
"        4 w 4 ; *.@./ / v & O % = = : , , 2 =     V %.| / W N   | G N v v c c M m g . = J K K D Z Z N v r .   u l l z i . U H i ",
": l g f 0 %   @ b ' K K Z j 7       q m 5       m %.[ K D N i   ~ m j g u u u w q ;     u M v j l g g 7   , m %.o.} o.@.E j M i ",
"=.@.| O.%.%.T a = 3 v j g u 7 X     9 x m 6   z %.W D x j g %   g f q 2 , = % $   5 U * + 7 w q 8 7 $   - o.~ G F Z N Z G 3 $ A ",
"/ K K K K K W [ { P 1 2 3 , % @ w f 0 . +     H / N j l a 2 l H & o               * j , - 7 = : ; o     : G Z j l g g g i .   *.",
"G N m c j x x m M Z h   ; n  .O.o.[ / W M 1   $ r f u 9 :   6 M 7       @ 3 ] %._ ; = E O.%.` m 7     i l u 7 4 2 4 , = o     G ",
"x a i w q w w q w u 4    .@.[ K K G D N v m * P ! g ; - X 3 e o X n `  ./ [ [ K W U t / K K W ~ ! f 3 %.*.%.V         z E g   N ",
", = * $ .     # #     . o.K F M j j j g g w @ Y K Z r   u %.D   9 %.~ K K K D N M v i p v M N Z Z Z q Q K K [ H u 5   i D M . : ",
"u =     a b 9 .   # 7 = g M j g a u w 8 8 =   , p 9 <   a W v   4 W K D N j j g g p 9 ; a g g j g p 1 C N M Z G ( [ C * 4 3 @ 0 ",
"H H 6 7 D Z v 6   7 N g @ * $ = a = o @ X   5 l l i g 3 = j 4     7 q q 9 7 , - = = +   # 3 5 8 ; w l , 9 i p p a j j r     j Z ",
"= 3 -   9 w 4 X # * % $ X     H ~ U 7   # m o.%.o.} | J 6 # X C J g           , f g <     7 * @   r M =   % , 4 7 7 4 o       O ",
"b l i $ q w 7 %.=.=. .g @     % t t = , o.*./ K K K G Z c 4   # = = : 7 e A o.%.%.o.[ h . j - .   3 z a l A A a #     # f P P A ",
"[ [ | ' u   5 ( W K K / U M q < : o   V @.W G D N x j j g 9     3 ` %.@.o./ W K G Z N j $ # 9 #. .$.%.%.@.| | [ M     L %.[ | [ ",
"Z N N M h   + M M M m v v v x g p $   x N x g a a a p u 9 2 a , M ~ K D Z N m g r 7 a z ;   x Q F G Z N M v g t - 7 # v F G Z Z ",
"w u w ; 7 Q , 8 q w u w w w w 8 3 & g 9 w t a 4 4 4 4 8 , o J J , m x g r r q ; V b M U p   < i t p a i w r : + . [ C % 9 i p r ",
"        * g :   X @ $ * # o .       3 % 6 i 9   p x ,       = 4               - x x + = #       + % = = = o       4 8         . "
};
