/* XPM */
static char *_41aa067ea754883894a4e715e80a20dZ75rD6BDJD5rzVsp[] = {
/* columns rows colors chars-per-pixel */
"64 64 3 1 ",
"  c #FDAB00s",
". c black",
"X c white",
/* pixels */
"                                                                ",
"                                                                ",
"                                                                ",
"                                                                ",
"                                                                ",
"                                                                ",
"              ......                              ......        ",
"              ......                              ......        ",
"              ..XX..                              ..XX..        ",
"              ..XX..                              ..XX..        ",
"          ....XXXX..                              ..XXXX....    ",
"          ....XXXX..                              ..XXXX....    ",
"          ..XXXXXXXX..  ......................  ..XXXXXXXX..    ",
"          ..XXXXXXXX..  ......................  ..XXXXXXXX..    ",
"          ......XXXX....XXXXXXXXXXXXXXXXXXXXXX....XXXX......    ",
"          ......XXXX....XXXXXXXXXXXXXXXXXXXXXX....XXXX......    ",
"                ......XXXXXXXXXXXXXXXXXXXXXXXXXX......          ",
"                ......XXXXXXXXXXXXXXXXXXXXXXXXXX......          ",
"                  ..XXXXXXXXXXXXXXXXXXXXXXXXXXXXXX..            ",
"                  ..XXXXXXXXXXXXXXXXXXXXXXXXXXXXXX..            ",
"                ..XXXXXXXXXXXXXXXXXXXXXXXXXXXXXXXXXX..          ",
"                ..XXXXXXXXXXXXXXXXXXXXXXXXXXXXXXXXXX..          ",
"                ..XXXXXXXXXXXXXXXXXXXXXXXXXXXXXXXXXX..          ",
"                ..XXXXXXXXXXXXXXXXXXXXXXXXXXXXXXXXXX..          ",
"                ..XXXXXXXXXXXXXXXXXXXXXXXXXXXXXXXXXX..          ",
"                ..XXXXXXXXXXXXXXXXXXXXXXXXXXXXXXXXXX..          ",
"                ..XXXXXXXXXXXXXXXXXXXXXXXXXXXXXXXXXX..          ",
"                ..XXXXXXXXXXXXXXXXXXXXXXXXXXXXXXXXXX..          ",
"                ..XXXXXXXXXXXXXXXXXXXXXXXXXXXXXXXXXX..          ",
"                ..XXXXXXXXXXXXXXXXXXXXXXXXXXXXXXXXXX..          ",
"                ..XXXXXX......XXXXXXXXXX......XXXXXX..          ",
"                ..XXXXXX......XXXXXXXXXX......XXXXXX..          ",
"                ..XXXX....XXXX..XXXXXX....XXXX..XXXX..          ",
"                ..XXXX....XXXX..XXXXXX....XXXX..XXXX..          ",
"                ..XXXX....XXXX..XXXXXX....XXXX..XXXX..          ",
"                ..XXXX....XXXX..XXXXXX....XXXX..XXXX..          ",
"                ..XXXX..........XXXXXX..........XXXX..          ",
"                ..XXXX..........XXXXXX..........XXXX..          ",
"                ..XXXXXX......XXXX..XXXX......XXXXXX..          ",
"                ..XXXXXX......XXXX..XXXX......XXXXXX..          ",
"                ..XXXXXXXXXXXXXX......XXXXXXXXXXXXXX..          ",
"                ..XXXXXXXXXXXXXX......XXXXXXXXXXXXXX..          ",
"                  ..XXXXXXXXXXXX......XXXXXXXXXXXX..            ",
"                  ..XXXXXXXXXXXX......XXXXXXXXXXXX..            ",
"                  ......XXXXXXXXXXXXXXXXXXXXXX......            ",
"                  ......XXXXXXXXXXXXXXXXXXXXXX......            ",
"                ..XXXX....XXXXXXXXXXXXXXXXXX....XXXX..          ",
"                ..XXXX....XXXXXXXXXXXXXXXXXX....XXXX..          ",
"          ......XXXXXX..  ..XX..XXXXXX..XX..  ..XXXXXX......    ",
"          ......XXXXXX..  ..XX..XXXXXX..XX..  ..XXXXXX......    ",
"          ..XXXXXXXX..    ..XX..XX..XX..XX..    ..XXXXXXXX..    ",
"          ..XXXXXXXX..    ..XX..XX..XX..XX..    ..XXXXXXXX..    ",
"          ....XXXX..      ..................      ..XXXX....    ",
"          ....XXXX..      ..................      ..XXXX....    ",
"              ..XX..                              ..XX..        ",
"              ..XX..                              ..XX..        ",
"              ......                              ......        ",
"              ......                              ......        ",
"                                                                ",
"                                                                ",
"                                                                ",
"                                                                ",
"                                                                ",
"                                                                "
};
