/* XPM */
static char *_ed2bc9b64f04872e8760147a6c41350NhE1c0vPzEd5gk3y[] = {
/* columns rows colors chars-per-pixel */
"64 64 242 2 ",
"   c #030304",
".  c #0D0405",
"X  c #06060B",
"o  c #07080F",
"O  c #0B080D",
"+  c #130605",
"@  c #1B0A06",
"#  c #140A09",
"$  c #1B0B0A",
"%  c #1C100F",
"&  c #060915",
"*  c #0D0C15",
"=  c #0D0E1B",
"-  c #130C13",
";  c #190E13",
":  c #120F1A",
">  c #0D101E",
",  c #1C1214",
"<  c #13111C",
"1  c #181319",
"2  c #1C141B",
"3  c #220C05",
"4  c #2B0B04",
"5  c #230D09",
"6  c #290F09",
"7  c #320E05",
"8  c #2B1206",
"9  c #25110B",
"0  c #2D140B",
"q  c #2D180D",
"w  c #351104",
"e  c #3B1404",
"r  c #33140B",
"t  c #3A160B",
"y  c #33190D",
"u  c #3C1A0D",
"i  c #241413",
"p  c #2D1914",
"a  c #23161A",
"s  c #281718",
"d  c #2D1A1D",
"f  c #331C13",
"g  c #3C1D11",
"h  c #321C1C",
"j  c #381F1D",
"k  c #38230D",
"l  c #3D2213",
"z  c #3B241C",
"x  c #0C0D27",
"c  c #151424",
"v  c #1A1624",
"b  c #1C1925",
"n  c #161628",
"m  c #1B1629",
"M  c #1B192A",
"N  c #241C23",
"B  c #291B21",
"V  c #231D2C",
"C  c #301B20",
"Z  c #241D30",
"A  c #2C2126",
"S  c #25212E",
"D  c #2B232D",
"F  c #2F282D",
"G  c #362727",
"H  c #262131",
"J  c #2C2532",
"K  c #2F2833",
"L  c #302633",
"P  c #332A33",
"I  c #382E38",
"U  c #3E3234",
"Y  c #3C333C",
"T  c #421602",
"R  c #471A05",
"E  c #431B0E",
"W  c #541C05",
"Q  c #431E11",
"!  c #491F11",
"~  c #44250B",
"^  c #48290C",
"/  c #572208",
"(  c #5A3B07",
")  c #442413",
"_  c #4A2613",
"`  c #472918",
"'  c #4A2B19",
"]  c #572516",
"[  c #522A16",
"{  c #5B2D15",
"}  c #55251B",
"|  c #542C19",
" . c #5A2C1B",
".. c #4E3219",
"X. c #57351A",
"o. c #5C321B",
"O. c #6B2702",
"+. c #692903",
"@. c #703106",
"#. c #663415",
"$. c #64341B",
"%. c #6B351A",
"&. c #6A391D",
"*. c #773C1C",
"=. c #743D1E",
"-. c #442A21",
";. c #4B3327",
":. c #573924",
">. c #42363E",
",. c #553F30",
"<. c #683D23",
"1. c #743C22",
"2. c #7A3D24",
"3. c #7B5105",
"4. c #5D4225",
"5. c #544033",
"6. c #5B4435",
"7. c #5E4836",
"8. c #684629",
"9. c #744222",
"0. c #7C4223",
"q. c #734D2B",
"w. c #7A4A2A",
"e. c #76522C",
"r. c #634C3A",
"t. c #704F32",
"y. c #7A5935",
"u. c #3F3441",
"i. c #413643",
"p. c #453A45",
"a. c #483C48",
"s. c #4D414A",
"d. c #53474E",
"f. c #4F4754",
"g. c #574C55",
"h. c #5C525B",
"j. c #695544",
"k. c #66575E",
"l. c #675D68",
"z. c #736872",
"x. c #756B77",
"c. c #8E4F14",
"v. c #936005",
"b. c #9A6607",
"n. c #9B6818",
"m. c #864727",
"M. c #8F4822",
"N. c #914E27",
"B. c #87552D",
"V. c #97532C",
"C. c #835934",
"Z. c #955A35",
"A. c #8B663B",
"S. c #96693A",
"D. c #9A723F",
"F. c #A8693C",
"G. c #A97433",
"H. c #8A6744",
"J. c #966B46",
"K. c #9D7442",
"L. c #9A7546",
"P. c #857052",
"I. c #9C7653",
"U. c #A36B42",
"Y. c #A96E44",
"T. c #AA7245",
"R. c #A57B46",
"E. c #AA7C45",
"W. c #A77848",
"Q. c #B17448",
"!. c #B67C49",
"~. c #A37E56",
"^. c #AC7B55",
"/. c #B37D52",
"(. c #B68338",
"). c #BB863B",
"_. c #BE893D",
"`. c #C48403",
"'. c #D48E02",
"]. c #D58F0A",
"[. c #D89204",
"{. c #D99317",
"}. c #F6A601",
"|. c #FDAB00",
" X c #F9A80C",
".X c #DE9924",
"XX c #CD9239",
"oX c #E19B26",
"OX c #E19B28",
"+X c #EEA529",
"@X c #A98048",
"#X c #AB824A",
"$X c #B2854B",
"%X c #B98349",
"&X c #B3894E",
"*X c #BC8B4C",
"=X c #AE8757",
"-X c #BD8E52",
";X c #B88857",
":X c #BD9253",
">X c #B3906A",
",X c #C38C4D",
"<X c #CA8D4F",
"1X c #CE964A",
"2X c #C38C58",
"3X c #C39453",
"4X c #CC9454",
"5X c #CB9659",
"6X c #D39B57",
"7X c #CFA058",
"8X c #D6A35C",
"9X c #D8A459",
"0X c #DCA45D",
"qX c #E6A543",
"wX c #E1A65C",
"eX c #E3AB5E",
"rX c #C39364",
"tX c #CB9663",
"yX c #CB956A",
"uX c #CA9B69",
"iX c #D39D65",
"pX c #D8A665",
"aX c #D1A474",
"sX c #D8A978",
"dX c #E6AD63",
"fX c #EBAE64",
"gX c #E5AB69",
"hX c #E5B164",
"jX c #ECB468",
"kX c #F0B665",
"lX c #F1B66B",
"zX c #F3BB6C",
"xX c #EBB572",
"cX c #F2BC75",
"vX c #F8C279",
"bX c #7E7584",
"nX c #847985",
"mX c #D5AC80",
"MX c #DEB486",
"NX c #E2B789",
"BX c #DFC194",
"VX c #F7C88C",
/* pixels */
"|.|.|.|.|.|.|.|.|.|.|.|.|.|.|.|.|.|.|.|.|.|.|.|.|.|.|.|.|.|.|.|.|.|.|.|.|.|.|.|.|.|.|.|.|.|.|.|.|.|.|.|.|.|.|.|.|.|.|.|.|.|.|.|.",
"|.|.|.|.|.|.|.|.|.|.|.|.|.|.|.|.|.|.|.|.|.|.|.|.|.|.|.|.|.|.|.|.|.|.|.|.|.|.|.|.|.|.|.|.|.|.|.|.|.|.|.|.|.|.|.|.|.|.|.|.|.|.|.|.",
"|.|.|.|.|.|.|.|.|.|.|.|.|.|.|.|.|.|.|.|.|.|.|.|.|.|.|.|.|.|.|.|.|.|.|.|.|.|.|.|.|.|.|.|.|.|.|.|.|.|.|.|.|.|.|.|.|.|.|.|.|.|.|.|.",
"|.|.|.|.|.|.|.|.|.|.|.|.|.|.|.|.|.|.|.|.|.|.|.|.|.|.|.|.|.|.|.|.|.|.|.|.|.|.|.|.|.|.|.|.|.|.|.|.|.|.|.|.|.|.|.|.|.|.|.|.|.|.|.|.",
"|.|.|.|.|.|.|.|.|.|.|.|.|.|.|.|.|.|.|.|.|.|.|.|.|.|.|.|.|.|.|.|.|.|.|.|.|.|.|.|.|.|.|.|.|.|.|.|.|.|.|.|.|.|.|.|.|.|.|.|.|.|.|.|.",
"|.|.|.|.|.|.|.|.|.|.|.|.|.|.|.|.|.|.|.|.|.|.|.|.|.|.|.|.|.|.|.|.|.|.|.|.|.|.|.|.|.|.|.|.|.|.|.|.|.|.|.|.|.|.|.|.|.|.|.|.|.|.|.|.",
"|.|.|.|.|.|.|.|.|.|.|.|.|.|.|.|.|.|.|.|.|.|.|.|.|.|.|.|.|.|.|.|.|.|.|.|.|.|.|.|.|.|.|.|.|.|.|.|.|.|.|.|.|.|.|.|.|.|.|.|.|.|.|.|.",
"|.|.|.|.|.|.|.|.|.|.|.|.|.|.|.|.|.|.|.|.|.|.|.|.|.|.|.|.|.|.|.|.|.|.|.|.|.|.|.|.|.|.|.|.|.|.|.|.|.|.|.|.|.|.|.|.|.|.|.|.|.|.|.|.",
"|.|.|.|.|.|.|.|.|.|.|.|.|.|.|.|.|.|.|.|.|.|.|.|.|.|.|.|.|.|.|.|.|.|.|.|.|.|.|.|.|.|.|.|.|.|.|.|.|.|.|.|.|.|.|.|.|.|.|.|.|.|.|.|.",
"|.|.|.|.|.|.|.|.|.|.|.|.|.|.|.|.|.|.|.|.|.|.|.|.|.|.|.|.|.|.|.|.|.|.|.|.|.|.|.|.|.|.|.|.|.|.|.|.|.|.|.|.|.|.|.|.|.|.|.|.|.|.|.|.",
"|.|.|.|.|.|.|.|.|.|.|.|.|.|.|.|.|.|.|.|.|.|.|.|.|.|.|.|.|.|.|.|.|.|.|.|.|.|.|.|.|.|.|.|.|.|.|.|.|.|.|.|.|.|.|.|.|.|.|.|.|.|.|.|.",
"|.|.|.|.|.|.|.|.|.|.|.|.|.|.|.|.|.|.|.|.|.|.|.|.|.|.|.|.|.|.|.|.|.|.|.|.|.|.|.|.|.|.|.|.|.|.|.|.|.|.|.|.|.|.|.|.|.|.|.|.|.|.|.|.",
"|.|.|.|.|.|.|.|.|.|.|.|.|.|.|.|.|.|.|.|.|.|.|.|.|.|.|.|.|.|.|.|.|.|.|.|.|.|.|.|.|.|.|.|.|.|.|.|.|.|.|.|.|.|.|.|.|.|.|.|.|.|.|.|.",
"|.|.|.|.|.|.|.|.|.|.|.|.|.|.|.|.|.|.|.|.|.|.|.|.|.|.|.|.|.|.|.|.|.|.|.|.|.|.|.|.|.|.|.|.|.|.|.|.|.|.|.|.|.|.|.|.|.|.|.|.|.|.|.|.",
"|.|.|.|.|.|.|.|.|.|.|.|.|.|.|.|.|.|.|.|.|.|.|.|.|.|.|.|.|.|.|.|.|.|.|.|.|.|.|.|.|.|.|.|.|.|.|.|.|.|.|.|.|.|.|.|.|.|.|.|.|.|.|.|.",
"|.|.|.|.|.|.|.|.|.|.|.|.|.|.|.|.|.|.|.|.|.|.|.|.|.|.|.|.|.|.|.|.|.|.|.|.|.|.|.|.|.|.|.|.|.|.|.|.|.|.|.|.|.|.|.|.|.|.|.|.|.|.|.|.",
"|.|.|. X X X X X X X X X X X X X}.}.}.}.}.}.}.}.}. X X X X X X X X X X X X X X X X X X X X X}.}.}.}.}.}.}.}.}. X X X X X X X}.}.",
"|.|.}.+XOX.XoXoXoXoXoXoXoXoXOXoX{.'.'.'.'.'.'.].{..XoXoXoXoXoXoXoXoXoXoXoXoXOXOXOXoXoXoXoX.X{.'.'.'.'.'.'.'.{..X.X.XoXoXoX.X{.].",
"|.|. XXX_.)._._._._.).)._._.XX(.n.v.v.v.v.v.v.n.G.(.).).)._._._.).).).).)._._._._._.).).).(.n.v.v.v.v.v.v.v.G.G.(.(.).).).(.G.n.",
"|. X+X1X&X&X&X&X&X&X&X&X&X&X#XA.4.k k ~ ~ ~ X.e.D.#X$X$X&X&X&X&X$X$X$X$X$X$X$X$X$X#X#X#XR.A.8.^ ~ ^ ^ ~ ..8.A.K.K.R.R.R.R.A.e.X.",
"|.+XqX0XpXpXpXpXpXpX8XpXpX8X#Xt.' 0 5 r 7 y 8.S.-X7X8X8X8X8X8X8X8X8X8X8X6X5X4X5X5X4X5X4X$Xy.:.) q t ) q :.S.E.$X$X&X*X*XE.y.4.' ",
" X+X9XhXvXvXzXzXzXzXlXlXzXjX#X..l y 0 t r l C.$X9XhXkXkXkXkXkXkXkXkXkXkXfXwXwXwXwXwXwXwX*X8.' | y ) [ y q.$X,X,X3X4X4X4X$Xy.:.` ",
"oXXX3XpXxXjXhXhXhXhXhXhXhX8XK.u t t 0 7 4 l C.$X7XeXhXdXeXeXdXdXdXdXhXdXeX6X6X6X6X6X6X5XE.X.~ [ t g ` 0 q.$X,X,X,X,X,X*XE.e.X.' ",
").(.#X-X:X:X:X:X:X:X-X:X&XK.e.u t u t 8 8 ` C.R.&X-X-X-X*X-X3X3X3X3X3X3X*X$X$X$X$X#XE.D.y.` u ) t t y 0 8.D.E.E.R.R.E.K.S.B.<.' ",
"#X#XR.E.#X#X#X#XR.R.R.L.y.:.) u u t u ' X.q.A.R.#X#X#XR.R.#X#X#X#X#X#X#XR.K.K.R.K.A.y.4.) u u E t l ' X.q.S.K.K.S.S.A.y.B.B.9.' ",
"3X3X3X3X3X-X-X-X-X3X*XA.:.0 4 y t 7 ) e.S.R.*X3X3X3X3X3X3X3X3X3X3X3X3X3X,X*X*X*X%XS.4.) t t ) ) r X.e.B.S.T.E.T.T.S.y.e.B.B.9.) ",
"gXdXdX0XpXpX0X0XpXdX6XA.l u r 0 t 8 ..D.*X4X9XeXeXdXhXhXhXhXhXeXeXeXeXeXwXwXwX9X1XD...[ [ y ` | l q.S.F.!.,X%X!.%XD.8.q.B.B.<.l ",
"lXjXfXfXfXfXfXfXjXdX4XC.r u y 0 t ) 8.E.6XwXfXlXlXlXzXzXzXzXzXzXzXlXkXlXzXcXcXxX4XS...| | g ` X.8.A.!.!.,X6X4X,X,XD.4.q.B.m.o.h ",
"lXjXfXjXjXfXdXfXlXpXD.8.g u t r r :.A.$X6XgXlXcXcXcXcXvXvXvXvXvXvXcXcXvXVXVXVXBX=Xq.X.o.| ` g :.A.W.;X,X4XpXiX4X,XS.:.q.B.<.' a ",
"dXdXdXdXdXwX0XdXgX-X4.) ) u u t 0 8.J./.5XgXgXgXgXgXxXxXcXcXvXVXcXxXxXcXVXVXVXBXP._ $.o.[ [ t :.J.$X;X%X2XpXiX4X%XS.:.q.q.| p 1 ",
"4X4X4X4X4X<X,X<X5XW.l g _ E E E 0 <.S.Y.%X2X5X5X5X5X5XiXiXiXpXpXpXiXiXpXsXsXMXmXj.7 o.[ _ _ r ;.J.T.T.T.!.2X2X!.T.C.;.8.<.z 2 * ",
"F.F.F.F.F.F.F.F.F.C.f ) [ E ! E r o.m.Z.Z.F.U.U.U.U.U.Y.T.T.T.W.T.T.Y.T.Q.^.^.I.,.w [ _ ! ! 6 ` B.Z.Z.Z.Z.S.S.Z.B.8.` ' ' d : * ",
"N.N.N.m.m.m.0.2.2.$.r ) _ E E E 0 [ 1.2.2.2.0.m.m.m.0.0.0.0.0.0.0.0.0.0.0.0.m.1.g r ! E E E 6 g 1.2.1.1.1.1.1.1.1.| j f h v = * ",
"$.$.$. . . . .} ] Q 0 Q Q t E E 6 g }  . .} } } } } } } } } } } } } ] ] ] ] ] R 6 r E t t u 6 0 }  .} } } } } } ' z a a a c = & ",
"G G z j j h h h h i 5 g g 0 t u 6 i h h h h h h h h h h h C h h h h h h h h h s $ 0 u r r u 0 $ d C d d d C C C B a : 2 v c 2 2 ",
"S V V b b v b b c : 9 ` ' y t u 5 1 N b c v v v v v v v v v m m v v v c c v c : - r E t t E r - c c c c c v c c c > * < c = B G ",
"I P J D D D D V V v p X.:.Q E u 5 a D D V V V S S S S H H H H H H S S S V V V v ; r Q u u Q r ; V V M m M S M m m c * < c < G ;.",
"Y I P L L L J J D N p :.:.Q u t 5 N P P J J J J J J J K K K J K K J J J J J V b ; 0 u t t Q 0 1 V J Z V Z J S M M v * = B -.;.;.",
"Y I P L L L L D N 2 i ) ) r 8 4 # N P P J J K K K J K K K K K K K J J J J D N 2 + 3 4 4 8 r 5 1 V J Z Z H K S M M v & & -.8.<.;.",
"Y I L J J J J D N A F G G s i i $ N P L J J J J J J J J J J J J J J J J D V 2 2 N A d a i i $ ; V Z V V H J S M M c - , :.C.q.-.",
"J S m m m V V V A p.h.g.s.U P D , 2 V M m M M V m m m m m m m m m m m c x x : D f.g.s.Y P D a * c x x x n M n x x & i ;.q.C.8.z ",
"V V M b b b b N D h.x.x.l.d.a.>.N 1 b b v v b b v v v v v v v v v v v c c c O Y z.x.l.g.a.i.D * c c x c c m v c v & p 8.C.w.:.d ",
"5.r.j.j.r.,.,.;.U l.nXx.l.h.d.a.A G 7.j.j.r.6.6.7.7.7.7.7.7.7.7.7.7.r.j.j.7.z p.x.bXz.h.s.a.P d ,.j.j.r.6.6.6.6.6.;.z t.C.<.-.2 ",
"J.=X>X>X~.J.H.y.;.h.x.z.h.s.s.a.A t.I.>X>X=XI.L.~.~.~.~.~.~.~.~.~.~.=X>X>XI.t.Y l.z.l.s.p.a.K ;.J.>X>X=XI.I.I.I.I.y.z 8.q.:.j 2 ",
"=XaXNXsXuX;X/.L.,.a.k.g.Y F >.p.A H.yXNXNXaXrX;XrXuXuXuXuXuXuXuXuXuXaXNXMXrXH.P f.g.a.P P p.J 8.=XsXNXaXrXrXrXrXrXJ.z X.<.z a a ",
"=XaXNXsXtX;X!.U.:.a.k.a.a , Y p.A A.rXMXNXuX2X-XtXtXtXtXtXtXtXtXtXtXuXMXmXrXA.D p.p.D 1 D i.H 8.=XsXMXaX2X;X;X2X;XJ.z ` ' s , i ",
"S./.rX2X!.F.F.V.| d.l.s.. - Y p.A w.Q.;X;X/.Y.F.T.Q.Q.Q.Q.Q.Q.Q.Q.T.W.;X;XU.q.D p.u.b O D i.J ;.J.^.=X^.U.U.U.U.U.y.p p z p i % ",
"2.N.V.V.N.M.M.*.) g.z.d.2 N >.p.A #.N.V.N.M.M.M.M.M.M.M.M.M.M.M.M.m.m.m.m.0.| D a.i.N 2 L p.K g 1.w.w.w.9.0.0.0.0.o.$ ; p p q 9 ",
"/ +.@.@.@.@.@.+.g d.l.g.Y Y p.p.A / @.O.+.+.+.+.O.O.O.O.O.O.O.O.O.+./ W W W t A p.p.P P Y p.P 0 ! W W W / / / / / T # , p p f y ",
"e T R R R R T e i >.h.g.s.a.a.p.B w R R T T T T T T T T T T T T T e e w w w 6 N u.p.i.i.p.a.P $ w w 7 w w w w w w 6 # q f f l ) ",
"9 0 0 0 8 8 5 3 ; F a.s.a.a.p.Y N $ 9 6 6 3 3 3 3 3 3 3 3 3 3 3 3 3 @ 3 3 3 @ 2 I u.i.i.i.u.D $ @ 3 @ @ @ @ @ @ @ + # q l l l l ",
"g g g g g g u y ; N P I I P P D 2 9 q 0 q y 0 0 0 0 0 0 0 0 0 0 0 0 0 0 y y 9 1 D D P P P D N % q y q q 9 q 9 9 9 $ # q l ` l q ",
"| | | | | | | ` f s a a a 2 2 , ; y ) _ _ _ _ _ _ _ _ _ _ _ _ _ _ _ ~ ~ _ _ g i , 2 a a a a , i l ) ) l l ) ) l l q # y ) ' g # ",
"&.&.&.&.&.1.&.$.X.) 5 q r @ # @ # ) $.&.&.$.$.$.$.$.$.&.&.$.&.&.$.#.#.{ { { { ! 9 9 r 0 0 9 $ q | o.{ [ | o.o.o.| l 9 ) | ` p   ",
"0.0.1.0.0.0.0.9.9.X.q ) ) 9 5 5 @ [ *.0.0.9.*.*.0.0.0.0.0.0.0.0.*.*.*.%.%.%.%.{ t 0 E u t r 5 y $.&.$.o.$.*.*.*.&._ 0 | o.z i # ",
"*.*.*.*.0.0.0.9.9.X.y ` ` 0 6 0 3 [ 1.0.0.9.*.*.9.0.0.0.0.0.0.0.*.*.*.%.%.%.%.{ t r E u t t 3 y { &.$. .$.&.*.*.&._ q | | h ( 3.",
"{ { { { { $.{ o.o.) q ` ' r 6 0 @ g  .$.o.o.{  .o.o.o.o.o.o.o.o. . .{ [ [ [ ] ! 0 0 t t r 0 @ 9 _ [ _ ) ` |  .| [ g 9 ) ` p b.`.",
"q q 0 q y y q q q 9 9 ` ` r 6 9 @ i p h f q q p p f p h h h h f f p p p s s s i # @ 6 6 6 5 @ # i p i i i p p p s $ O a p ( `.}.",
"= * & * * & o o & O 5 l ) 0 6 5 @ ; < = & o o * = = = = = > = = > > = : > > > = - @ 5 5 5 5 @ O = > > > > > > > > * X & X.b.[.|.",
"c c < c c c < < : - @ y f 5 6 6 @ : c c c * = < < c c c c c c c c c c v c c c c - @ 5 5 5 5 @ - c n c c c c c c c > X X c.'.}.|.",
"b v c v v v c < < ; @ 5 9 5 5 6 @ 1 v M v 1 1 < < c v v v c v v m m m m m c c c - @ 5 5 $ 5 @ - c n n n n n n n n < q ( b.}.|.|.",
"v c < v v c < < < ; # @ $ @ 5 5 @ - : c < : : * * : c c < : < c c c c v c c < = O + @ @ @ # # O : < < < < < < < < * ^ b.[.}.|.|.",
"< : < < < < : : : - + # $ $ $ @ # + o * < : O     & : < * X * : < < < < < : & X . + + + + + + . o o o o o o o o o X ( `.}.|.|.|.",
"* * * < < : * * * - + # $ $ $ # # +   O * * X     X * * O   O * * * * * * * X   . . . . . . . .                     ( [.|.|.|.|."
};
